<?xml version="1.0" encoding="UTF-8"?>
<!DOCTYPE svg PUBLIC "-//W3C//DTD SVG 1.1//EN" "http://www.w3.org/Graphics/SVG/1.1/DTD/svg11.dtd">
<svg xmlns="http://www.w3.org/2000/svg" version="1.1" width="48px" height="48px" style="shape-rendering:geometricPrecision; text-rendering:geometricPrecision; image-rendering:optimizeQuality; fill-rule:evenodd; clip-rule:evenodd" xmlns:xlink="http://www.w3.org/1999/xlink">
<g><path style="opacity:0.966" fill="#fbc319" d="M 30.5,29.5 C 27.9607,31.5303 25.6274,33.8636 23.5,36.5C 21.3726,33.8636 19.0393,31.5303 16.5,29.5C 14.7545,26.3374 13.2545,23.004 12,19.5C 11.0639,5.77816 17.2305,0.944828 30.5,5C 35.1532,8.78848 36.6532,13.6218 35,19.5C 33.7455,23.004 32.2455,26.3374 30.5,29.5 Z M 20.5,10.5 C 28.4863,9.99804 30.4863,13.1647 26.5,20C 18.424,20.8047 16.424,17.638 20.5,10.5 Z"/></g>
<g><path style="opacity:0.977" fill="#7cb242" d="M 16.5,29.5 C 19.0393,31.5303 21.3726,33.8636 23.5,36.5C 25.6274,33.8636 27.9607,31.5303 30.5,29.5C 33.2469,29.1866 35.9135,29.52 38.5,30.5C 40.2422,34.7254 41.5755,39.0587 42.5,43.5C 29.8333,43.5 17.1667,43.5 4.5,43.5C 5.42446,39.0587 6.7578,34.7254 8.5,30.5C 11.0865,29.52 13.7531,29.1866 16.5,29.5 Z"/></g>
</svg>
