<?xml version="1.0" encoding="UTF-8"?>
<!DOCTYPE svg PUBLIC "-//W3C//DTD SVG 1.1//EN" "http://www.w3.org/Graphics/SVG/1.1/DTD/svg11.dtd">
<svg xmlns="http://www.w3.org/2000/svg" version="1.1" width="64px" height="64px" style="shape-rendering:geometricPrecision; text-rendering:geometricPrecision; image-rendering:optimizeQuality; fill-rule:evenodd; clip-rule:evenodd" xmlns:xlink="http://www.w3.org/1999/xlink">
<g><path style="opacity:0.812" fill="#f9ec19" d="M 56.5,11.5 C 55.791,12.404 54.791,12.7373 53.5,12.5C 49.5,11.1667 45.5,11.1667 41.5,12.5C 40.209,12.7373 39.209,12.404 38.5,11.5C 42.6615,8.64018 47.3282,7.80685 52.5,9C 54.0664,9.6082 55.3998,10.4415 56.5,11.5 Z"/></g>
<g><path style="opacity:0.825" fill="#e8ef1a" d="M 54.5,19.5 C 53.5,19.5 52.5,19.5 51.5,19.5C 50.6879,18.0069 49.3545,17.3402 47.5,17.5C 45.6455,17.3402 44.3121,18.0069 43.5,19.5C 42.5,19.5 41.5,19.5 40.5,19.5C 41.4224,15.9167 43.7558,14.2501 47.5,14.5C 51.2442,14.2501 53.5776,15.9167 54.5,19.5 Z"/></g>
<g><path style="opacity:0.671" fill="#e9ef1a" d="M 56.5,11.5 C 59.4603,14.0997 60.7937,17.433 60.5,21.5C 59.8333,21.5 59.1667,21.5 58.5,21.5C 57.6436,18.1268 55.977,15.1268 53.5,12.5C 54.791,12.7373 55.791,12.404 56.5,11.5 Z"/></g>
<g><path style="opacity:0.928" fill="#e4ef1b" d="M 38.5,11.5 C 39.209,12.404 40.209,12.7373 41.5,12.5C 39.3963,14.3718 38.063,16.7052 37.5,19.5C 26.5,19.5 15.5,19.5 4.5,19.5C 14.3414,18.8334 24.3414,18.1667 34.5,17.5C 35.3611,15.0894 36.6944,13.0894 38.5,11.5 Z"/></g>
<g><path style="opacity:0.935" fill="#d8f11c" d="M 4.5,19.5 C 15.5,19.5 26.5,19.5 37.5,19.5C 37.5,21.1667 37.5,22.8333 37.5,24.5C 36.0755,22.9689 35.4088,23.3023 35.5,25.5C 35.1667,25.5 34.8333,25.5 34.5,25.5C 34.5,24.8333 34.5,24.1667 34.5,23.5C 34.5,22.5 34.5,21.5 34.5,20.5C 25.4938,20.3336 16.4938,20.5002 7.5,21C 7.16667,21.3333 6.83333,21.6667 6.5,22C 10.0247,24.698 13.3581,27.5314 16.5,30.5C 15.1667,30.5 13.8333,30.5 12.5,30.5C 9.58649,29.0939 7.08649,27.0939 5,24.5C 4.50454,26.4727 4.33788,28.4727 4.5,30.5C 3.83333,30.5 3.16667,30.5 2.5,30.5C 2.33499,27.1501 2.50166,23.8168 3,20.5C 3.38258,19.944 3.88258,19.6107 4.5,19.5 Z"/></g>
<g><path style="opacity:0.895" fill="#d1f21c" d="M 40.5,19.5 C 41.5,19.5 42.5,19.5 43.5,19.5C 43.062,25.3133 45.562,26.98 51,24.5C 51.4935,22.8659 51.6602,21.1992 51.5,19.5C 52.5,19.5 53.5,19.5 54.5,19.5C 54.2606,21.4672 54.5939,23.3005 55.5,25C 57.9342,25.3329 58.9342,24.1662 58.5,21.5C 59.1667,21.5 59.8333,21.5 60.5,21.5C 60.7564,23.7925 60.4231,25.9592 59.5,28C 55.4367,27.7764 51.4367,27.9431 47.5,28.5C 41.8547,28.1795 39.5214,25.1795 40.5,19.5 Z"/></g>
<g><path style="opacity:0.955" fill="#fbfb33" d="M 34.5,23.5 C 34.5,24.1667 34.5,24.8333 34.5,25.5C 27.8333,25.5 21.1667,25.5 14.5,25.5C 13.9569,25.44 13.6236,25.1067 13.5,24.5C 20.4684,23.503 27.4684,23.1697 34.5,23.5 Z"/></g>
<g><path style="opacity:1" fill="#fcfa4f" d="M 14.5,25.5 C 21.1667,25.5 27.8333,25.5 34.5,25.5C 34.8333,25.5 35.1667,25.5 35.5,25.5C 35.5,26.1667 35.5,26.8333 35.5,27.5C 34.8333,27.8333 34.1667,28.1667 33.5,28.5C 28.3054,28.1795 23.3054,28.5128 18.5,29.5C 16.8333,28.5 15.5,27.1667 14.5,25.5 Z"/></g>
<g><path style="opacity:1" fill="#fdf96d" d="M 18.5,29.5 C 23.3054,28.5128 28.3054,28.1795 33.5,28.5C 32.7095,29.4013 31.7095,30.0679 30.5,30.5C 27.1667,30.5 23.8333,30.5 20.5,30.5C 19.8333,30.1667 19.1667,29.8333 18.5,29.5 Z"/></g>
<g><path style="opacity:0.784" fill="#bef61d" d="M 37.5,24.5 C 38.2279,26.7346 39.5612,28.5679 41.5,30C 44.5678,31.0158 47.5678,32.1825 50.5,33.5C 49.1468,34.5237 48.4802,35.857 48.5,37.5C 47.8333,37.5 47.1667,37.5 46.5,37.5C 46.5,36.5 46.5,35.5 46.5,34.5C 43.325,34.4971 40.4916,33.4971 38,31.5C 37.2828,32.0442 36.7828,32.7109 36.5,33.5C 35.7784,33.9175 35.2784,34.5842 35,35.5C 32.9189,34.6669 30.7522,34.6669 28.5,35.5C 31.1577,33.0316 33.4911,30.3649 35.5,27.5C 35.5,26.8333 35.5,26.1667 35.5,25.5C 35.4088,23.3023 36.0755,22.9689 37.5,24.5 Z"/></g>
<g><path style="opacity:0.824" fill="#fef896" d="M 20.5,30.5 C 23.8333,30.5 27.1667,30.5 30.5,30.5C 27.1667,35.8333 23.8333,35.8333 20.5,30.5 Z"/></g>
<g><path style="opacity:0.726" fill="#b2f71e" d="M 12.5,30.5 C 13.8333,30.5 15.1667,30.5 16.5,30.5C 19.1658,31.8421 21.4992,33.6755 23.5,36C 25.265,36.6397 26.9317,36.4731 28.5,35.5C 30.7522,34.6669 32.9189,34.6669 35,35.5C 35.2784,34.5842 35.7784,33.9175 36.5,33.5C 37.5,34.8333 38.5,36.1667 39.5,37.5C 38.1667,37.5 36.8333,37.5 35.5,37.5C 34.5416,37.0472 33.7083,36.3805 33,35.5C 27.8361,40.7785 22.6694,40.7785 17.5,35.5C 17.19,34.2617 16.69,34.2617 16,35.5C 15.7679,34.2625 15.2679,33.2625 14.5,32.5C 13.5,32.1667 12.8333,31.5 12.5,30.5 Z"/></g>
<g><path style="opacity:0.932" fill="#a6f91f" d="M 2.5,30.5 C 3.16667,30.5 3.83333,30.5 4.5,30.5C 4.33449,34.5138 4.50115,38.5138 5,42.5C 8,39.8333 11,37.1667 14,34.5C 14.4643,33.9056 14.631,33.2389 14.5,32.5C 15.2679,33.2625 15.7679,34.2625 16,35.5C 16.69,34.2617 17.19,34.2617 17.5,35.5C 13.1667,39.5 8.83333,43.5 4.5,47.5C 3.83333,47.5 3.16667,47.5 2.5,47.5C 2.5,41.8333 2.5,36.1667 2.5,30.5 Z"/></g>
<g><path style="opacity:1" fill="#a1f91f" d="M 35.5,37.5 C 36.8333,37.5 38.1667,37.5 39.5,37.5C 42.0752,38.5678 44.2419,40.2345 46,42.5C 46.4935,40.8659 46.6602,39.1992 46.5,37.5C 47.1667,37.5 47.8333,37.5 48.5,37.5C 48.5,40.8333 48.5,44.1667 48.5,47.5C 47.8333,47.5 47.1667,47.5 46.5,47.5C 42.8333,44.1667 39.1667,40.8333 35.5,37.5 Z"/></g>
<g><path style="opacity:0.917" fill="#85fe21" d="M 2.5,47.5 C 3.16667,47.5 3.83333,47.5 4.5,47.5C 4.62435,49.5816 5.62435,51.0816 7.5,52C 19.5,52.6667 31.5,52.6667 43.5,52C 45.3757,51.0816 46.3757,49.5816 46.5,47.5C 47.1667,47.5 47.8333,47.5 48.5,47.5C 48.8957,50.0444 48.229,52.2111 46.5,54C 32.5,54.6667 18.5,54.6667 4.5,54C 2.77099,52.2111 2.10433,50.0444 2.5,47.5 Z"/></g>
<g><path style="opacity:1" fill="#93fc20" d="M 17.5,48.5 C 22.8746,48.1718 28.2079,48.5052 33.5,49.5C 30.8333,49.8333 28.1667,50.1667 25.5,50.5C 22.4098,50.4783 19.7432,49.8117 17.5,48.5 Z"/></g>
</svg>
