<?xml version="1.0" encoding="UTF-8"?>
<!DOCTYPE svg PUBLIC "-//W3C//DTD SVG 1.1//EN" "http://www.w3.org/Graphics/SVG/1.1/DTD/svg11.dtd">
<svg xmlns="http://www.w3.org/2000/svg" version="1.1" width="48px" height="48px" style="shape-rendering:geometricPrecision; text-rendering:geometricPrecision; image-rendering:optimizeQuality; fill-rule:evenodd; clip-rule:evenodd" xmlns:xlink="http://www.w3.org/1999/xlink">
<g><path style="opacity:1" fill="#fcfefd" d="M -0.5,-0.5 C 15.5,-0.5 31.5,-0.5 47.5,-0.5C 47.5,15.5 47.5,31.5 47.5,47.5C 31.5,47.5 15.5,47.5 -0.5,47.5C -0.5,31.5 -0.5,15.5 -0.5,-0.5 Z"/></g>
<g><path style="opacity:1" fill="#079688" d="M 35.5,35.5 C 34.1667,35.5 32.8333,35.5 31.5,35.5C 27.8333,35.5 24.1667,35.5 20.5,35.5C 19.1667,35.5 17.8333,35.5 16.5,35.5C 14.629,35.1412 13.129,34.1412 12,32.5C 12.0583,24.6123 10.8917,16.9456 8.5,9.5C 6.02253,9.94922 4.02253,9.28255 2.5,7.5C 3.52712,5.97602 5.02712,5.30936 7,5.5C 9.61698,5.12729 11.4503,6.12729 12.5,8.5C 22.8333,9.16667 33.1667,9.83333 43.5,10.5C 41.2338,16.1989 38.5672,21.6989 35.5,27C 28.8417,27.4996 22.175,27.6663 15.5,27.5C 15.33,28.8221 15.6634,29.9887 16.5,31C 23.1583,31.4996 29.825,31.6663 36.5,31.5C 36.7678,33.099 36.4345,34.4324 35.5,35.5 Z"/></g>
<g><path style="opacity:1" fill="#4a5a62" d="M 16.5,35.5 C 17.8333,35.5 19.1667,35.5 20.5,35.5C 22.5938,40.5706 21.0938,42.2373 16,40.5C 15.3603,38.735 15.5269,37.0683 16.5,35.5 Z"/></g>
<g><path style="opacity:1" fill="#4a5a62" d="M 31.5,35.5 C 32.8333,35.5 34.1667,35.5 35.5,35.5C 37.5938,40.5706 36.0938,42.2373 31,40.5C 30.3603,38.735 30.5269,37.0683 31.5,35.5 Z"/></g>
</svg>
