<?xml version="1.0" encoding="UTF-8"?>
<!DOCTYPE svg PUBLIC "-//W3C//DTD SVG 1.1//EN" "http://www.w3.org/Graphics/SVG/1.1/DTD/svg11.dtd">
<svg xmlns="http://www.w3.org/2000/svg" version="1.1" width="50px" height="50px" style="shape-rendering:geometricPrecision; text-rendering:geometricPrecision; image-rendering:optimizeQuality; fill-rule:evenodd; clip-rule:evenodd" xmlns:xlink="http://www.w3.org/1999/xlink">
<g><path style="opacity:0.989" fill="#fab004" d="M 17.5,1.5 C 41.1541,0.318958 50.6541,11.319 46,34.5C 38.7573,46.8068 28.2573,50.6402 14.5,46C 2.19317,38.7573 -1.64016,28.2573 3,14.5C 6.16246,8.16411 10.9958,3.83077 17.5,1.5 Z M 23.5,12.5 C 25.4136,15.6843 26.0803,19.351 25.5,23.5C 40.1667,24.1667 40.1667,24.8333 25.5,25.5C 24.8333,40.1667 24.1667,40.1667 23.5,25.5C 8.83333,24.8333 8.83333,24.1667 23.5,23.5C 23.5,19.8333 23.5,16.1667 23.5,12.5 Z"/></g>
</svg>
