<?xml version="1.0" encoding="UTF-8"?>
<!DOCTYPE svg PUBLIC "-//W3C//DTD SVG 1.1//EN" "http://www.w3.org/Graphics/SVG/1.1/DTD/svg11.dtd">
<svg xmlns="http://www.w3.org/2000/svg" version="1.1" width="64px" height="64px" style="shape-rendering:geometricPrecision; text-rendering:geometricPrecision; image-rendering:optimizeQuality; fill-rule:evenodd; clip-rule:evenodd" xmlns:xlink="http://www.w3.org/1999/xlink">
<g><path style="opacity:0.869" fill="#000000" d="M 20.5,11.5 C 27.8409,11.3337 35.1742,11.5003 42.5,12C 48,12.1667 50.8333,15 51,20.5C 51.6667,27.8333 51.6667,35.1667 51,42.5C 50.8333,48 48,50.8333 42.5,51C 35.1667,51.6667 27.8333,51.6667 20.5,51C 15,50.8333 12.1667,48 12,42.5C 11.3333,35.1667 11.3333,27.8333 12,20.5C 12.3445,14.9917 15.1778,11.9917 20.5,11.5 Z M 21.5,19.5 C 28.175,19.3337 34.8417,19.5004 41.5,20C 42,20.5 42.5,21 43,21.5C 43.6667,28.1667 43.6667,34.8333 43,41.5C 42.5,42 42,42.5 41.5,43C 34.8333,43.6667 28.1667,43.6667 21.5,43C 21,42.5 20.5,42 20,41.5C 19.3333,34.8333 19.3333,28.1667 20,21.5C 20.7172,20.9558 21.2172,20.2891 21.5,19.5 Z M 30.5,28.5 C 35.1972,29.8743 35.5305,31.8743 31.5,34.5C 28.025,32.9158 27.6917,30.9158 30.5,28.5 Z"/></g>
<g><path style="opacity:0.606" fill="#000000" d="M 38.5,24.5 C 38.5,23.5 38.5,22.5 38.5,21.5C 39.5,21.5 40.5,21.5 41.5,21.5C 41.5,22.5 41.5,23.5 41.5,24.5C 40.5,24.5 39.5,24.5 38.5,24.5 Z"/></g>
<g><path style="opacity:0.826" fill="#000000" d="M 38.5,24.5 C 43.0846,37.4137 38.7513,42.247 25.5,39C 22.1709,34.8631 21.6709,30.3631 24,25.5C 28.5828,21.9075 33.4161,21.5741 38.5,24.5 Z M 30.5,28.5 C 27.6917,30.9158 28.025,32.9158 31.5,34.5C 35.5305,31.8743 35.1972,29.8743 30.5,28.5 Z"/></g>
</svg>
