<?xml version="1.0" encoding="UTF-8"?>
<!DOCTYPE svg PUBLIC "-//W3C//DTD SVG 1.1//EN" "http://www.w3.org/Graphics/SVG/1.1/DTD/svg11.dtd">
<svg xmlns="http://www.w3.org/2000/svg" version="1.1" width="64px" height="64px" style="shape-rendering:geometricPrecision; text-rendering:geometricPrecision; image-rendering:optimizeQuality; fill-rule:evenodd; clip-rule:evenodd" xmlns:xlink="http://www.w3.org/1999/xlink">
<g><path style="opacity:0.524" fill="#1bb11a" d="M 11.5,22.5 C 11.4609,20.6412 12.2942,19.3079 14,18.5C 16.0564,21.309 15.2231,22.6423 11.5,22.5 Z"/></g>
<g><path style="opacity:0.718" fill="#29a21d" d="M 63.5,30.5 C 63.5,32.1667 63.5,33.8333 63.5,35.5C 61.7867,37.8504 59.4534,38.8504 56.5,38.5C 56.6657,42.8461 56.499,47.1794 56,51.5C 55.6541,53.8477 54.4875,55.6811 52.5,57C 37.5,57.6667 22.5,57.6667 7.5,57C 3.64987,55.6468 0.983199,53.1468 -0.5,49.5C -0.5,47.1667 -0.5,44.8333 -0.5,42.5C 2.76965,39.8139 2.76965,37.4806 -0.5,35.5C -0.5,33.8333 -0.5,32.1667 -0.5,30.5C 2.88653,26.8141 6.88653,24.1474 11.5,22.5C 11.631,23.2389 11.4643,23.9056 11,24.5C 8.14604,26.5977 5.47938,28.931 3,31.5C 2.38862,35.0876 3.88862,36.2542 7.5,35C 14.9499,27.7814 22.9499,21.2814 31.5,15.5C 39.8893,20.7178 47.5559,26.8845 54.5,34C 58.2557,36.5433 60.089,35.71 60,31.5C 51.1667,24 42.3333,16.5 33.5,9C 32.1667,8.33333 30.8333,8.33333 29.5,9C 25.8333,12 22.1667,15 18.5,18C 17.365,18.7494 16.365,18.5827 15.5,17.5C 20.0195,12.3003 25.3529,8.30029 31.5,5.5C 34.1476,5.96728 36.4809,7.13394 38.5,9C 46.8646,16.1744 55.1979,23.3411 63.5,30.5 Z M 30.5,27.5 C 34.619,28.3678 35.119,30.0344 32,32.5C 28.3724,31.453 27.8724,29.7864 30.5,27.5 Z M 7.5,37.5 C 18.0387,36.9148 21.5387,41.5815 18,51.5C 12.3856,56.648 7.38559,55.9813 3,49.5C 1.4742,44.2389 2.9742,40.2389 7.5,37.5 Z M 25.5,38.5 C 29.5,38.5 33.5,38.5 37.5,38.5C 37.5,40.8333 37.5,43.1667 37.5,45.5C 30.8333,46.1667 30.8333,46.8333 37.5,47.5C 37.5,50.1667 37.5,52.8333 37.5,55.5C 33.5,55.5 29.5,55.5 25.5,55.5C 25.5,49.8333 25.5,44.1667 25.5,38.5 Z"/></g>
<g><path style="opacity:1" fill="#f7c319" d="M 29.5,18.5 C 30.8734,18.3433 32.2068,18.51 33.5,19C 39.9072,24.6187 46.4072,30.1187 53,35.5C 53.6667,41.5 53.6667,47.5 53,53.5C 52.5,54 52,54.5 51.5,55C 47.5138,55.4988 43.5138,55.6655 39.5,55.5C 39.6662,49.4908 39.4995,43.4908 39,37.5C 34,36.1667 29,36.1667 24,37.5C 23.5005,43.4908 23.3338,49.4908 23.5,55.5C 21.4727,55.6621 19.4727,55.4955 17.5,55C 24.9909,46.104 23.3242,39.2706 12.5,34.5C 18.187,29.145 23.8537,23.8117 29.5,18.5 Z M 30.5,27.5 C 27.8724,29.7864 28.3724,31.453 32,32.5C 35.119,30.0344 34.619,28.3678 30.5,27.5 Z M 25.5,38.5 C 25.5,44.1667 25.5,49.8333 25.5,55.5C 29.5,55.5 33.5,55.5 37.5,55.5C 37.5,52.8333 37.5,50.1667 37.5,47.5C 30.8333,46.8333 30.8333,46.1667 37.5,45.5C 37.5,43.1667 37.5,40.8333 37.5,38.5C 33.5,38.5 29.5,38.5 25.5,38.5 Z"/></g>
<g><path style="opacity:0.739" fill="#40a61d" d="M 28.5,25.5 C 35.9395,24.7533 37.9395,27.5866 34.5,34C 27.1608,34.8093 25.1608,31.9759 28.5,25.5 Z M 30.5,27.5 C 27.8724,29.7864 28.3724,31.453 32,32.5C 35.119,30.0344 34.619,28.3678 30.5,27.5 Z"/></g>
<g><path style="opacity:0.576" fill="#1fa11e" d="M 4.5,42.5 C 6.85187,43.5426 7.01854,44.8759 5,46.5C 3.23173,45.3181 3.06507,43.9848 4.5,42.5 Z"/></g>
<g><path style="opacity:0.64" fill="#1fa21f" d="M 16.5,42.5 C 18.8519,43.5426 19.0185,44.8759 17,46.5C 15.2317,45.3181 15.0651,43.9848 16.5,42.5 Z"/></g>
<g><path style="opacity:0.541" fill="#1fa01d" d="M 8.5,46.5 C 10.288,46.2148 11.9547,46.5481 13.5,47.5C 11.2029,50.2896 9.53625,49.9563 8.5,46.5 Z"/></g>
</svg>
