<?xml version="1.0" encoding="UTF-8"?>
<!DOCTYPE svg PUBLIC "-//W3C//DTD SVG 1.1//EN" "http://www.w3.org/Graphics/SVG/1.1/DTD/svg11.dtd">
<svg xmlns="http://www.w3.org/2000/svg" version="1.1" width="48px" height="48px" style="shape-rendering:geometricPrecision; text-rendering:geometricPrecision; image-rendering:optimizeQuality; fill-rule:evenodd; clip-rule:evenodd" xmlns:xlink="http://www.w3.org/1999/xlink">
<g><path style="opacity:0.977" fill="#f8c419" d="M 47.5,17.5 C 47.5,18.5 47.5,19.5 47.5,20.5C 46.2552,23.4792 44.2552,24.4792 41.5,23.5C 36.321,17.8949 30.321,13.2282 23.5,9.5C 16.679,13.2282 10.679,17.8949 5.5,23.5C 2.72325,24.4467 0.723252,23.4467 -0.5,20.5C -0.5,19.5 -0.5,18.5 -0.5,17.5C 7.46379,11.8835 15.4638,6.21681 23.5,0.5C 31.5362,6.21681 39.5362,11.8835 47.5,17.5 Z"/></g>
<g><path style="opacity:1" fill="#94d72c" d="M 41.5,23.5 C 41.5,29.8333 41.5,36.1667 41.5,42.5C 37.5,42.5 33.5,42.5 29.5,42.5C 29.5,37.1667 29.5,31.8333 29.5,26.5C 25.5,26.5 21.5,26.5 17.5,26.5C 17.5,31.8333 17.5,37.1667 17.5,42.5C 13.5,42.5 9.5,42.5 5.5,42.5C 5.5,36.1667 5.5,29.8333 5.5,23.5C 10.679,17.8949 16.679,13.2282 23.5,9.5C 30.321,13.2282 36.321,17.8949 41.5,23.5 Z"/></g>
<g><path style="opacity:1" fill="#fbe218" d="M 29.5,42.5 C 25.5,42.5 21.5,42.5 17.5,42.5C 17.5,37.1667 17.5,31.8333 17.5,26.5C 21.5,26.5 25.5,26.5 29.5,26.5C 29.5,31.8333 29.5,37.1667 29.5,42.5 Z"/></g>
</svg>
