<?xml version="1.0" encoding="UTF-8"?>
<!DOCTYPE svg PUBLIC "-//W3C//DTD SVG 1.1//EN" "http://www.w3.org/Graphics/SVG/1.1/DTD/svg11.dtd">
<svg xmlns="http://www.w3.org/2000/svg" version="1.1" width="64px" height="64px" style="shape-rendering:geometricPrecision; text-rendering:geometricPrecision; image-rendering:optimizeQuality; fill-rule:evenodd; clip-rule:evenodd" xmlns:xlink="http://www.w3.org/1999/xlink">
<g><path style="opacity:0.932" fill="#fcc418" d="M 26.5,10.5 C 42.3638,9.58004 51.3638,16.9134 53.5,32.5C 49.3434,51.8191 38.01,57.9857 19.5,51C 8.12459,41.1636 6.62459,29.9969 15,17.5C 18.5136,14.4999 22.3469,12.1666 26.5,10.5 Z M 28.5,18.5 C 38.3973,18.0663 44.064,22.7329 45.5,32.5C 44.3999,38.5946 41.0666,42.9279 35.5,45.5C 34.52,42.9135 34.1866,40.2469 34.5,37.5C 38.4851,37.5601 40.1518,35.5601 39.5,31.5C 37.8333,31.5 36.1667,31.5 34.5,31.5C 33.7564,28.0504 35.0897,26.3838 38.5,26.5C 38.5,25.1667 38.5,23.8333 38.5,22.5C 30.6732,20.6636 27.3398,23.6636 28.5,31.5C 27.1667,31.5 25.8333,31.5 24.5,31.5C 24.5,33.5 24.5,35.5 24.5,37.5C 25.8333,37.5 27.1667,37.5 28.5,37.5C 28.8134,40.2469 28.48,42.9135 27.5,45.5C 18.2103,40.9212 15.7103,33.9212 20,24.5C 22.3218,21.6047 25.1552,19.6047 28.5,18.5 Z"/></g>
</svg>
