<?xml version="1.0" standalone="no"?>
<!DOCTYPE svg PUBLIC "-//W3C//DTD SVG 20010904//EN"
 "http://www.w3.org/TR/2001/REC-SVG-20010904/DTD/svg10.dtd">
<svg version="1.0" xmlns="http://www.w3.org/2000/svg"
 width="100.000000pt" height="100.000000pt" viewBox="0 0 100.000000 100.000000"
 preserveAspectRatio="xMidYMid meet">

<g transform="translate(0.000000,100.000000) scale(0.100000,-0.100000)"
fill="#000000" stroke="none">
<path d="M110 820 c-19 -19 -20 -33 -20 -270 0 -211 -2 -250 -14 -250 -24 0
-28 -17 -12 -55 24 -58 55 -65 275 -65 l190 0 3 -37 3 -38 190 0 190 0 0 225
0 225 -32 3 -33 3 0 120 c0 174 35 159 -380 159 -327 0 -341 -1 -360 -20z
m710 -150 l5 -135 33 -3 32 -3 0 -200 0 -199 -164 0 -165 0 -3 38 -3 37 -215
3 c-204 2 -215 3 -237 24 -28 26 -29 34 -3 41 19 5 20 14 20 264 0 143 3 263
7 266 4 4 160 6 347 5 l341 -3 5 -135z"/>
<path d="M610 465 c-7 -8 -9 -22 -5 -32 5 -12 9 -14 12 -5 3 6 11 12 18 12 7
0 15 -6 18 -12 3 -9 7 -7 12 5 8 19 -10 47 -30 47 -7 0 -18 -7 -25 -15z"/>
<path d="M790 465 c-7 -8 -9 -22 -5 -32 5 -12 9 -14 12 -5 3 6 11 12 18 12 7
0 15 -6 18 -12 3 -9 7 -7 12 5 8 19 -10 47 -30 47 -7 0 -18 -7 -25 -15z"/>
<path d="M410 255 c8 -9 30 -15 60 -15 30 0 52 6 60 15 11 13 3 15 -60 15 -63
0 -71 -2 -60 -15z"/>
</g>
</svg>
