<?xml version="1.0" encoding="UTF-8"?>
<!DOCTYPE svg PUBLIC "-//W3C//DTD SVG 1.1//EN" "http://www.w3.org/Graphics/SVG/1.1/DTD/svg11.dtd">
<svg xmlns="http://www.w3.org/2000/svg" version="1.1" width="16px" height="16px" style="shape-rendering:geometricPrecision; text-rendering:geometricPrecision; image-rendering:optimizeQuality; fill-rule:evenodd; clip-rule:evenodd" xmlns:xlink="http://www.w3.org/1999/xlink">
<g><path style="opacity:1" fill="#9fdc2a" d="M 4.5,-0.5 C 6.5,-0.5 8.5,-0.5 10.5,-0.5C 12.5554,0.558761 13.8888,2.22543 14.5,4.5C 13.5416,4.0472 12.7083,3.38053 12,2.5C 11.5172,3.44802 11.3505,4.44802 11.5,5.5C 10.5,5.5 9.5,5.5 8.5,5.5C 11.2087,3.86839 10.8753,3.36839 7.5,4C 6.81554,5.69337 5.81554,7.19337 4.5,8.5C 6.17326,10.5225 6.83993,12.8559 6.5,15.5C 5.83333,15.5 5.16667,15.5 4.5,15.5C 2.5,14.1667 0.833333,12.5 -0.5,10.5C -0.5,8.5 -0.5,6.5 -0.5,4.5C 0.833333,2.5 2.5,0.833333 4.5,-0.5 Z"/></g>
<g><path style="opacity:1" fill="#9bdb2b" d="M 14.5,4.5 C 14.8333,4.5 15.1667,4.5 15.5,4.5C 15.5,6.5 15.5,8.5 15.5,10.5C 14.1667,12.5 12.5,14.1667 10.5,15.5C 9.83333,15.5 9.16667,15.5 8.5,15.5C 8.16007,12.8559 8.82674,10.5225 10.5,8.5C 9.38809,7.73485 8.72142,6.73485 8.5,5.5C 9.5,5.5 10.5,5.5 11.5,5.5C 11.3505,4.44802 11.5172,3.44802 12,2.5C 12.7083,3.38053 13.5416,4.0472 14.5,4.5 Z"/></g>
<g><path style="opacity:1" fill="#f8f519" d="M 8.5,5.5 C 8.72142,6.73485 9.38809,7.73485 10.5,8.5C 8.82674,10.5225 8.16007,12.8559 8.5,15.5C 7.83333,15.5 7.16667,15.5 6.5,15.5C 6.83993,12.8559 6.17326,10.5225 4.5,8.5C 5.81554,7.19337 6.81554,5.69337 7.5,4C 10.8753,3.36839 11.2087,3.86839 8.5,5.5 Z"/></g>
</svg>
