<?xml version="1.0" encoding="UTF-8"?>
<!DOCTYPE svg PUBLIC "-//W3C//DTD SVG 1.1//EN" "http://www.w3.org/Graphics/SVG/1.1/DTD/svg11.dtd">
<svg xmlns="http://www.w3.org/2000/svg" version="1.1" width="48px" height="48px" style="shape-rendering:geometricPrecision; text-rendering:geometricPrecision; image-rendering:optimizeQuality; fill-rule:evenodd; clip-rule:evenodd" xmlns:xlink="http://www.w3.org/1999/xlink">
<g><path style="opacity:1" fill="#fac41d" d="M 38.5,21.5 C 36.6159,21.2882 35.2826,20.2882 34.5,18.5C 32.2049,21.3896 29.2049,22.2229 25.5,21C 24.1667,17.6667 22.8333,17.6667 21.5,21C 19.1667,21.6667 16.8333,21.6667 14.5,21C 13.4709,17.9429 12.1376,17.9429 10.5,21C 8.5273,21.4955 6.5273,21.6621 4.5,21.5C 2.06889,20.3932 1.06889,18.3932 1.5,15.5C 1.36103,13.1175 2.02769,11.1175 3.5,9.5C 4.47784,9.18897 5.14451,8.5223 5.5,7.5C 17.4861,6.3341 29.4861,6.16744 41.5,7C 44.2425,10.7611 45.0759,14.9278 44,19.5C 42.5557,21.1554 40.7224,21.822 38.5,21.5 Z"/></g>
<g><path style="opacity:0.996" fill="#e3c43c" d="M 41.5,22.5 C 40.209,22.7373 39.209,22.404 38.5,21.5C 40.7224,21.822 42.5557,21.1554 44,19.5C 45.0759,14.9278 44.2425,10.7611 41.5,7C 29.4861,6.16744 17.4861,6.3341 5.5,7.5C 5.14451,8.5223 4.47784,9.18897 3.5,9.5C 3.53944,8.41683 3.87277,7.41683 4.5,6.5C 17.1535,5.33402 29.8202,5.16736 42.5,6C 45.3306,10.4408 46.1639,15.2741 45,20.5C 44.1841,21.8228 43.0174,22.4894 41.5,22.5 Z"/></g>
<g><path style="opacity:1" fill="#24c363" d="M 38.5,21.5 C 39.209,22.404 40.209,22.7373 41.5,22.5C 41.5,24.5 41.5,26.5 41.5,28.5C 35.1667,28.5 28.8333,28.5 22.5,28.5C 22.3893,27.8826 22.056,27.3826 21.5,27C 18.5,26.3333 15.5,26.3333 12.5,27C 11.944,27.3826 11.6107,27.8826 11.5,28.5C 9.5,28.5 7.5,28.5 5.5,28.5C 5.70197,26.0504 5.36863,23.717 4.5,21.5C 6.5273,21.6621 8.5273,21.4955 10.5,21C 12.1376,17.9429 13.4709,17.9429 14.5,21C 16.8333,21.6667 19.1667,21.6667 21.5,21C 22.8333,17.6667 24.1667,17.6667 25.5,21C 29.2049,22.2229 32.2049,21.3896 34.5,18.5C 35.2826,20.2882 36.6159,21.2882 38.5,21.5 Z"/></g>
<g><path style="opacity:0.979" fill="#36cf58" d="M 5.5,28.5 C 7.5,28.5 9.5,28.5 11.5,28.5C 11.3379,30.5273 11.5045,32.5273 12,34.5C 15.3333,35.8333 18.6667,35.8333 22,34.5C 22.4955,32.5273 22.6621,30.5273 22.5,28.5C 28.8333,28.5 35.1667,28.5 41.5,28.5C 41.5,33.1667 41.5,37.8333 41.5,42.5C 39.8333,42.5 38.1667,42.5 36.5,42.5C 36.797,38.2325 36.4637,34.0659 35.5,30C 29.5062,28.1594 27.1729,30.3261 28.5,36.5C 20.8333,36.5 13.1667,36.5 5.5,36.5C 5.5,33.8333 5.5,31.1667 5.5,28.5 Z"/></g>
<g><path style="opacity:1" fill="#46d550" d="M 5.5,36.5 C 13.1667,36.5 20.8333,36.5 28.5,36.5C 28.5,38.5 28.5,40.5 28.5,42.5C 20.8333,42.5 13.1667,42.5 5.5,42.5C 5.5,40.5 5.5,38.5 5.5,36.5 Z"/></g>
</svg>
