<?xml version="1.0" standalone="no"?>
<!DOCTYPE svg PUBLIC "-//W3C//DTD SVG 20010904//EN"
 "http://www.w3.org/TR/2001/REC-SVG-20010904/DTD/svg10.dtd">
<svg version="1.0" xmlns="http://www.w3.org/2000/svg"
 width="980.000000pt" height="980.000000pt" viewBox="0 0 980.000000 980.000000"
 preserveAspectRatio="xMidYMid meet">

<g transform="translate(0.000000,980.000000) scale(0.100000,-0.100000)"
fill="#000000" stroke="none">
<path d="M4600 9784 c-399 -34 -599 -66 -910 -144 -548 -137 -1114 -395 -1582
-720 -868 -603 -1521 -1471 -1854 -2466 -651 -1947 -20 -4089 1582 -5370 545
-436 1193 -758 1854 -924 456 -114 845 -157 1320 -147 531 12 962 86 1455 252
1096 367 2030 1117 2633 2112 110 181 282 529 359 723 456 1158 456 2438 0
3600 -76 193 -249 541 -359 723 -603 996 -1536 1744 -2633 2112 -358 121 -679
190 -1090 235 -98 11 -686 22 -775 14z m-656 -1229 c524 -61 995 -283 1370
-645 370 -358 603 -811 683 -1330 21 -141 24 -471 5 -605 -72 -500 -275 -925
-615 -1291 l-66 -71 286 -319 c157 -175 306 -341 331 -367 l45 -49 61 20 c93
31 161 36 244 18 143 -30 130 -18 854 -744 575 -575 670 -675 696 -727 77
-156 65 -328 -34 -471 -37 -55 -241 -238 -347 -312 -202 -141 -397 -166 -515
-67 -57 48 -1297 1436 -1329 1488 -79 128 -82 291 -8 437 l26 51 -307 342
c-169 188 -322 357 -340 376 l-33 34 -68 -40 c-397 -235 -828 -345 -1288 -330
-1166 39 -2127 927 -2246 2074 -16 158 -6 473 20 613 89 486 304 903 641 1240
288 288 646 496 1040 605 117 32 318 70 420 78 119 9 358 5 474 -8z"/>
<path d="M3425 7826 c-587 -97 -1068 -496 -1259 -1045 -66 -188 -80 -279 -80
-511 0 -175 3 -220 22 -306 137 -629 608 -1099 1239 -1235 122 -27 407 -37
538 -20 688 92 1240 617 1361 1296 27 149 25 405 -4 551 -114 573 -510 1022
-1067 1209 -153 51 -254 67 -465 71 -139 2 -231 -1 -285 -10z"/>
</g>
</svg>
